<svg width="284" height="257" viewBox="0 0 284 257" fill="none" xmlns="http://www.w3.org/2000/svg">
<rect width="284" height="257" rx="22" fill="#128E50"/>
<path d="M70.686 36H63.9V23.4H70.686V25.416H66.06V28.926H69.804V30.744H66.06V33.984H70.686V36ZM76.4963 36.18C75.9563 36.18 75.4103 36.096 74.8583 35.928C74.3183 35.76 73.8083 35.532 73.3283 35.244C72.8603 34.944 72.4583 34.614 72.1223 34.254L73.7243 32.706C74.0843 33.078 74.5163 33.378 75.0203 33.606C75.5363 33.834 76.0163 33.948 76.4603 33.948C77.0243 33.948 77.4983 33.786 77.8823 33.462C78.2783 33.126 78.4763 32.73 78.4763 32.274C78.4763 31.902 78.3383 31.584 78.0623 31.32C77.7863 31.044 77.4443 30.846 77.0363 30.726C75.9683 30.438 75.0563 30.132 74.3003 29.808C73.5563 29.484 73.0043 29.058 72.6443 28.53C72.2843 28.002 72.1523 27.294 72.2483 26.406C72.3323 25.71 72.5603 25.134 72.9323 24.678C73.3163 24.21 73.7963 23.862 74.3723 23.634C74.9603 23.406 75.6083 23.292 76.3163 23.292C76.9523 23.292 77.6183 23.394 78.3143 23.598C79.0103 23.79 79.7003 24.114 80.3843 24.57L78.8543 26.154C78.5063 25.962 78.1283 25.8 77.7203 25.668C77.3123 25.536 76.8923 25.464 76.4603 25.452C76.1243 25.44 75.8003 25.476 75.4883 25.56C75.1883 25.632 74.9363 25.764 74.7323 25.956C74.5283 26.136 74.4203 26.382 74.4083 26.694C74.3963 27.042 74.4863 27.312 74.6783 27.504C74.8703 27.696 75.1343 27.852 75.4703 27.972C75.8183 28.092 76.2203 28.224 76.6763 28.368C77.5163 28.596 78.2303 28.86 78.8183 29.16C79.4063 29.448 79.8563 29.838 80.1683 30.33C80.4803 30.81 80.6363 31.458 80.6363 32.274C80.6363 33.006 80.4503 33.666 80.0783 34.254C79.7063 34.842 79.2083 35.31 78.5843 35.658C77.9603 36.006 77.2643 36.18 76.4963 36.18ZM87.876 36.198C87.012 36.198 86.214 36.03 85.482 35.694C84.75 35.346 84.102 34.89 83.538 34.326C82.974 33.75 82.53 33.078 82.206 32.31C81.882 31.53 81.72 30.666 81.72 29.718C81.72 28.794 81.882 27.942 82.206 27.162C82.542 26.37 82.986 25.68 83.538 25.092C84.09 24.516 84.732 24.06 85.464 23.724C86.208 23.388 87.012 23.22 87.876 23.22C88.788 23.22 89.658 23.43 90.486 23.85C91.314 24.258 92.082 24.894 92.79 25.758L91.044 27.198C90.552 26.586 90.042 26.148 89.514 25.884C88.986 25.608 88.44 25.47 87.876 25.47C87.336 25.47 86.832 25.578 86.364 25.794C85.908 26.01 85.494 26.31 85.122 26.694C84.762 27.066 84.48 27.51 84.276 28.026C84.072 28.53 83.97 29.094 83.97 29.718C83.97 30.342 84.072 30.906 84.276 31.41C84.48 31.902 84.762 32.34 85.122 32.724C85.482 33.108 85.896 33.408 86.364 33.624C86.832 33.84 87.336 33.948 87.876 33.948C88.44 33.948 88.986 33.816 89.514 33.552C90.042 33.276 90.552 32.832 91.044 32.22L92.79 33.66C92.082 34.524 91.314 35.166 90.486 35.586C89.658 35.994 88.788 36.198 87.876 36.198ZM106.566 29.664C106.566 30.564 106.404 31.41 106.08 32.202C105.768 32.982 105.33 33.666 104.766 34.254C104.202 34.842 103.548 35.304 102.804 35.64C102.06 35.976 101.262 36.144 100.41 36.144C99.5456 36.144 98.7416 35.976 97.9976 35.64C97.2536 35.292 96.5996 34.824 96.0356 34.236C95.4716 33.636 95.0276 32.946 94.7036 32.166C94.3916 31.374 94.2356 30.54 94.2356 29.664C94.2356 28.788 94.3976 27.966 94.7216 27.198C95.0456 26.418 95.4956 25.734 96.0716 25.146C96.6476 24.546 97.3076 24.078 98.0516 23.742C98.7956 23.406 99.5816 23.238 100.41 23.238C101.262 23.238 102.054 23.406 102.786 23.742C103.53 24.078 104.184 24.546 104.748 25.146C105.324 25.734 105.768 26.418 106.08 27.198C106.404 27.966 106.566 28.788 106.566 29.664ZM104.334 29.664C104.334 28.872 104.154 28.152 103.794 27.504C103.446 26.856 102.972 26.34 102.372 25.956C101.784 25.56 101.13 25.362 100.41 25.362C99.6896 25.362 99.0296 25.56 98.4296 25.956C97.8296 26.352 97.3496 26.88 96.9896 27.54C96.6416 28.188 96.4676 28.896 96.4676 29.664C96.4676 30.456 96.6416 31.182 96.9896 31.842C97.3496 32.502 97.8296 33.03 98.4296 33.426C99.0296 33.822 99.6896 34.02 100.41 34.02C101.142 34.02 101.802 33.822 102.39 33.426C102.978 33.03 103.446 32.502 103.794 31.842C104.154 31.17 104.334 30.444 104.334 29.664ZM114.101 36H108.179V23.4H110.339V33.876H114.101V36ZM124.702 36H122.542V30.87H117.88V36H115.72V23.4H117.88V28.89H122.542V23.4H124.702V36ZM126.316 35.982L130.204 23.4H132.922L136.828 35.982H134.524L133.624 32.94H129.52L128.62 35.982H126.316ZM131.572 26.1L130.096 31.068H133.048L131.572 26.1ZM152.433 36V34.974C152.085 35.31 151.695 35.58 151.263 35.784C150.831 35.988 150.357 36.09 149.841 36.09C148.929 36.09 148.113 35.886 147.393 35.478C146.685 35.058 146.127 34.494 145.719 33.786C145.311 33.078 145.107 32.298 145.107 31.446V23.4H147.249L147.267 31.446C147.267 31.902 147.381 32.316 147.609 32.688C147.837 33.048 148.143 33.33 148.527 33.534C148.923 33.738 149.361 33.84 149.841 33.84C150.345 33.84 150.789 33.738 151.173 33.534C151.569 33.318 151.875 33.03 152.091 32.67C152.319 32.31 152.433 31.902 152.433 31.446V23.4H154.593V31.104C154.593 31.224 154.581 31.332 154.557 31.428H154.593V36H152.433ZM156.396 36V23.4H159.888L162.858 31.356L165.828 23.4H169.32V36H167.16V26.046L163.884 34.2H161.85L158.556 26.046V36H156.396ZM184.75 36H177.964V23.4H184.75V25.416H180.124V28.926H183.868V30.744H180.124V33.984H184.75V36ZM190.561 36.18C190.021 36.18 189.475 36.096 188.923 35.928C188.383 35.76 187.873 35.532 187.393 35.244C186.925 34.944 186.523 34.614 186.187 34.254L187.789 32.706C188.149 33.078 188.581 33.378 189.085 33.606C189.601 33.834 190.081 33.948 190.525 33.948C191.089 33.948 191.563 33.786 191.947 33.462C192.343 33.126 192.541 32.73 192.541 32.274C192.541 31.902 192.403 31.584 192.127 31.32C191.851 31.044 191.509 30.846 191.101 30.726C190.033 30.438 189.121 30.132 188.365 29.808C187.621 29.484 187.069 29.058 186.709 28.53C186.349 28.002 186.217 27.294 186.313 26.406C186.397 25.71 186.625 25.134 186.997 24.678C187.381 24.21 187.861 23.862 188.437 23.634C189.025 23.406 189.673 23.292 190.381 23.292C191.017 23.292 191.683 23.394 192.379 23.598C193.075 23.79 193.765 24.114 194.449 24.57L192.919 26.154C192.571 25.962 192.193 25.8 191.785 25.668C191.377 25.536 190.957 25.464 190.525 25.452C190.189 25.44 189.865 25.476 189.553 25.56C189.253 25.632 189.001 25.764 188.797 25.956C188.593 26.136 188.485 26.382 188.473 26.694C188.461 27.042 188.551 27.312 188.743 27.504C188.935 27.696 189.199 27.852 189.535 27.972C189.883 28.092 190.285 28.224 190.741 28.368C191.581 28.596 192.295 28.86 192.883 29.16C193.471 29.448 193.921 29.838 194.233 30.33C194.545 30.81 194.701 31.458 194.701 32.274C194.701 33.006 194.515 33.666 194.143 34.254C193.771 34.842 193.273 35.31 192.649 35.658C192.025 36.006 191.329 36.18 190.561 36.18ZM205.424 25.38H201.86V36H199.7V25.38H196.136V23.4H205.424V25.38ZM205.066 35.982L208.954 23.4H211.672L215.578 35.982H213.274L212.374 32.94H208.27L207.37 35.982H205.066ZM210.322 26.1L208.846 31.068H211.798L210.322 26.1ZM227.063 29.664C227.063 30.528 226.907 31.344 226.595 32.112C226.295 32.868 225.869 33.54 225.317 34.128C224.765 34.716 224.117 35.178 223.373 35.514C222.641 35.838 221.849 36 220.997 36H217.199V23.346H220.997C221.861 23.346 222.659 23.514 223.391 23.85C224.135 24.186 224.777 24.648 225.317 25.236C225.869 25.824 226.295 26.496 226.595 27.252C226.907 28.008 227.063 28.812 227.063 29.664ZM224.831 29.664C224.831 28.884 224.663 28.188 224.327 27.576C223.991 26.952 223.529 26.46 222.941 26.1C222.365 25.74 221.717 25.56 220.997 25.56H219.359V33.786H220.997C221.729 33.786 222.383 33.6 222.959 33.228C223.535 32.856 223.991 32.358 224.327 31.734C224.663 31.11 224.831 30.42 224.831 29.664ZM240.476 29.664C240.476 30.564 240.314 31.41 239.99 32.202C239.678 32.982 239.24 33.666 238.676 34.254C238.112 34.842 237.458 35.304 236.714 35.64C235.97 35.976 235.172 36.144 234.32 36.144C233.456 36.144 232.652 35.976 231.908 35.64C231.164 35.292 230.51 34.824 229.946 34.236C229.382 33.636 228.938 32.946 228.614 32.166C228.302 31.374 228.146 30.54 228.146 29.664C228.146 28.788 228.308 27.966 228.632 27.198C228.956 26.418 229.406 25.734 229.982 25.146C230.558 24.546 231.218 24.078 231.962 23.742C232.706 23.406 233.492 23.238 234.32 23.238C235.172 23.238 235.964 23.406 236.696 23.742C237.44 24.078 238.094 24.546 238.658 25.146C239.234 25.734 239.678 26.418 239.99 27.198C240.314 27.966 240.476 28.788 240.476 29.664ZM238.244 29.664C238.244 28.872 238.064 28.152 237.704 27.504C237.356 26.856 236.882 26.34 236.282 25.956C235.694 25.56 235.04 25.362 234.32 25.362C233.6 25.362 232.94 25.56 232.34 25.956C231.74 26.352 231.26 26.88 230.9 27.54C230.552 28.188 230.378 28.896 230.378 29.664C230.378 30.456 230.552 31.182 230.9 31.842C231.26 32.502 231.74 33.03 232.34 33.426C232.94 33.822 233.6 34.02 234.32 34.02C235.052 34.02 235.712 33.822 236.3 33.426C236.888 33.03 237.356 32.502 237.704 31.842C238.064 31.17 238.244 30.444 238.244 29.664Z" fill="white" fill-opacity="0.18"/>
<rect x="18.5" y="13.5" width="248" height="30" rx="15" fill="white" stroke="white"/>
<path d="M36.2264 18.0273C31.1387 18.0273 27 22.3207 27 27.5985C27 32.8763 31.1387 37.1696 36.2264 37.1696C37.7817 37.1696 39.3106 36.7867 40.6023 36.0484C40.7058 36.1776 40.8205 36.2966 40.945 36.4039L43.5811 39.1385C43.8245 39.4226 44.1214 39.6521 44.4534 39.813C44.7854 39.9738 45.1456 40.0625 45.5118 40.0737C45.8781 40.0849 46.2427 40.0183 46.5833 39.878C46.9238 39.7377 47.2331 39.5267 47.4922 39.2579C47.7513 38.9891 47.9548 38.6683 48.09 38.315C48.2252 37.9617 48.2894 37.5835 48.2786 37.2035C48.2678 36.8236 48.1823 36.4499 48.0273 36.1055C47.8723 35.7611 47.651 35.4532 47.3771 35.2007L44.741 32.4661C44.6126 32.3328 44.4713 32.2137 44.3192 32.1106C45.031 30.7706 45.4791 29.2119 45.4791 27.5711C45.4791 22.2933 41.3404 18 36.2527 18L36.2264 18.0273ZM36.2264 20.762C39.8906 20.762 42.8166 23.7974 42.8166 27.5985C42.8166 29.4033 42.184 31.0714 41.0768 32.302C41.0505 32.3293 41.0241 32.3567 40.9977 32.384C40.8732 32.4914 40.7585 32.6104 40.655 32.7395C39.4952 33.8334 37.9135 34.4623 36.2 34.4623C32.5358 34.4623 29.6097 31.4269 29.6097 27.6258C29.6097 23.8247 32.5358 20.7893 36.2 20.7893L36.2264 20.762Z" fill="black"/>
</svg>
